<svg width="1646" height="151" viewBox="0 0 1646 151" fill="none" xmlns="http://www.w3.org/2000/svg">
<path opacity="0.03" d="M0.0730351 145.8H1.17303C2.34637 145.8 3.37304 145.36 4.25304 144.48C5.13303 143.6 5.86637 142.573 6.45303 141.4C7.18637 140.227 7.6997 138.98 7.99303 137.66C8.28637 136.193 8.43304 134.873 8.43304 133.7V16.44C8.43304 15.4133 8.28637 14.24 7.99303 12.92C7.6997 11.6 7.18637 10.3533 6.45303 9.17999C5.86637 8.00666 5.13303 7.05332 4.25304 6.31999C3.37304 5.43999 2.4197 4.99999 1.39304 4.99999H0.293036V2.79999H31.533V4.99999H30.433C29.2597 4.99999 28.233 5.43999 27.353 6.31999C26.473 7.05332 25.6664 8.00666 24.933 9.17999C24.3464 10.3533 23.833 11.6 23.393 12.92C23.0997 14.24 22.953 15.4133 22.953 16.44V61.98L73.993 11.16C75.1664 9.98666 75.753 8.59332 75.753 6.97999C75.753 5.65999 75.1664 4.99999 73.993 4.99999V2.79999H97.753V4.99999C94.8197 5.14666 92.1797 6.02666 89.833 7.64C87.633 9.25333 85.213 11.38 82.573 14.02L30.433 66.16C39.9664 66.4533 47.6664 68.5067 53.533 72.32C59.3997 76.1333 64.0197 81.4133 67.393 88.16L84.773 123.36C85.7997 125.56 87.1197 127.98 88.733 130.62C90.493 133.113 92.3997 135.533 94.453 137.88C96.653 140.08 99.073 141.987 101.713 143.6C104.353 145.067 107.14 145.8 110.073 145.8V148H99.073C94.8197 148 91.153 147.413 88.073 146.24C84.993 144.92 82.2797 143.233 79.933 141.18C77.733 138.98 75.753 136.56 73.993 133.92C72.3797 131.28 70.913 128.64 69.593 126L51.773 90.58C48.9864 85.1533 45.0997 81.0467 40.113 78.26C35.273 75.3267 29.553 73.7133 22.953 73.42V133.7C22.953 134.873 23.0997 136.12 23.393 137.44C23.6864 138.76 24.1264 140.08 24.713 141.4C25.2997 142.573 26.033 143.6 26.913 144.48C27.793 145.213 28.7464 145.653 29.773 145.8H31.313V148H0.0730351V145.8ZM220.419 145.8H221.519C225.039 145.8 226.799 144.187 226.799 140.96C226.799 139.787 226.579 138.54 226.139 137.22L206.339 83.76H167.839L148.699 136.34C148.259 137.513 148.039 138.613 148.039 139.64C148.039 141.547 148.552 143.087 149.579 144.26C150.605 145.287 151.705 145.8 152.879 145.8H153.979V148H129.559V145.8H130.659C132.565 145.8 134.399 144.7 136.159 142.5C138.065 140.153 139.605 137.44 140.779 134.36L191.159 0.159989L240.439 133.04C241.465 135.973 242.859 138.833 244.619 141.62C246.525 144.407 248.945 145.8 251.879 145.8H252.979V148H220.419V145.8ZM170.039 76.28H203.919L186.979 30.3L170.039 76.28ZM314.594 145.8H315.694V148H284.454V145.8H285.554C286.727 145.8 287.754 145.36 288.634 144.48C289.514 143.6 290.247 142.573 290.834 141.4C291.567 140.227 292.081 138.98 292.374 137.66C292.667 136.193 292.814 134.873 292.814 133.7V10.94H267.294C264.947 10.94 262.894 11.4533 261.134 12.48C259.374 13.5067 257.907 14.8267 256.734 16.44C255.561 17.9067 254.681 19.5933 254.094 21.5C253.507 23.26 253.214 25.02 253.214 26.78H251.014V2.79999H349.794V26.78H347.594C347.594 25.02 347.301 23.26 346.714 21.5C346.127 19.5933 345.247 17.9067 344.074 16.44C342.901 14.8267 341.434 13.5067 339.674 12.48C337.914 11.4533 335.861 10.94 333.514 10.94H307.554V133.7C307.554 134.873 307.701 136.193 307.994 137.66C308.287 138.98 308.727 140.227 309.314 141.4C310.047 142.573 310.781 143.6 311.514 144.48C312.394 145.36 313.421 145.8 314.594 145.8ZM438.674 145.8H439.774C443.294 145.8 445.054 144.187 445.054 140.96C445.054 139.787 444.834 138.54 444.394 137.22L424.594 83.76H386.094L366.954 136.34C366.514 137.513 366.294 138.613 366.294 139.64C366.294 141.547 366.807 143.087 367.834 144.26C368.861 145.287 369.961 145.8 371.134 145.8H372.234V148H347.814V145.8H348.914C350.821 145.8 352.654 144.7 354.414 142.5C356.321 140.153 357.861 137.44 359.034 134.36L409.414 0.159989L458.694 133.04C459.721 135.973 461.114 138.833 462.874 141.62C464.781 144.407 467.201 145.8 470.134 145.8H471.234V148H438.674V145.8ZM388.294 76.28H422.174L405.234 30.3L388.294 76.28ZM516.3 132.6C514.98 136.413 512.926 139.933 510.14 143.16C507.353 146.387 503.246 148 497.82 148H491V145.8C491.88 145.8 493.053 145.58 494.52 145.14C495.986 144.553 497.526 143.673 499.14 142.5C500.753 141.327 502.366 139.86 503.98 138.1C505.593 136.193 506.986 133.847 508.16 131.06L549.74 17.1C550.473 14.9 550.84 13.2133 550.84 12.04C550.84 9.84 550.18 8.15333 548.86 6.97999C547.686 5.65999 546.44 4.99999 545.12 4.99999V2.79999H563.16L612.44 137.44C613.173 139.493 614.566 141.4 616.62 143.16C618.673 144.773 620.946 145.653 623.44 145.8V148H591.98V145.8C593.153 145.8 594.326 145.36 595.5 144.48C596.82 143.453 597.48 142.133 597.48 140.52C597.48 140.08 597.333 139.42 597.04 138.54L555.68 24.58L516.3 132.6ZM727.166 0.599996C738.606 0.599996 748.873 2.65333 757.966 6.76C767.06 10.72 774.76 16.1467 781.066 23.04C787.519 29.7867 792.433 37.7067 795.806 46.8C799.326 55.7467 801.086 65.1333 801.086 74.96C801.086 85.96 799.033 96.08 794.926 105.32C790.966 114.56 785.466 122.48 778.426 129.08C771.386 135.68 763.173 140.887 753.786 144.7C744.546 148.367 734.646 150.2 724.086 150.2C712.793 150.2 702.599 148.147 693.506 144.04C684.559 139.933 676.933 134.507 670.626 127.76C664.466 121.013 659.699 113.24 656.326 104.44C652.953 95.64 651.266 86.4733 651.266 76.94C651.266 67.5533 652.953 58.3133 656.326 49.22C659.699 39.98 664.613 31.7667 671.066 24.58C677.666 17.3933 685.659 11.6 695.046 7.19999C704.433 2.79999 715.139 0.599996 727.166 0.599996ZM726.946 142.5C736.773 142.06 745.353 139.86 752.686 135.9C760.166 131.793 766.399 126.66 771.386 120.5C776.373 114.193 780.04 107.3 782.386 99.82C784.879 92.34 786.126 84.9333 786.126 77.6C786.126 69.5333 784.66 61.3933 781.726 53.18C778.793 44.9667 774.613 37.56 769.186 30.96C763.759 24.2133 757.233 18.7867 749.606 14.68C742.126 10.4267 733.693 8.29999 724.306 8.29999C715.213 8.29999 707.073 10.3533 699.886 14.46C692.699 18.42 686.539 23.5533 681.406 29.86C676.419 36.1667 672.606 43.2067 669.966 50.98C667.326 58.7533 666.006 66.38 666.006 73.86C666.006 81.9267 667.546 90.0667 670.626 98.28C673.706 106.347 677.959 113.68 683.386 120.28C688.813 126.88 695.193 132.233 702.526 136.34C710.006 140.447 718.146 142.5 726.946 142.5ZM864.169 145.8H865.269V148H833.589V145.8H834.689C835.863 145.8 836.889 145.433 837.769 144.7C838.649 143.82 839.383 142.793 839.969 141.62C840.703 140.447 841.216 139.2 841.509 137.88C841.803 136.56 841.949 135.313 841.949 134.14V16.44C841.949 15.4133 841.803 14.24 841.509 12.92C841.216 11.6 840.703 10.3533 839.969 9.17999C839.383 8.00666 838.649 7.05332 837.769 6.31999C836.889 5.43999 835.863 4.99999 834.689 4.99999H833.589V2.79999H918.289V26.12H916.089C916.089 20.84 914.916 16.9533 912.569 14.46C910.369 11.82 906.849 10.5 902.009 10.5H856.909V134.14C856.909 135.313 857.056 136.56 857.349 137.88C857.643 139.2 858.083 140.447 858.669 141.62C859.403 142.793 860.209 143.82 861.089 144.7C861.969 145.433 862.996 145.8 864.169 145.8ZM1006.75 2.79999H1037.33V4.99999H1036.01C1034.39 4.99999 1033.29 5.51333 1032.71 6.54C1032.12 7.42 1031.83 8.37333 1031.83 9.39999C1031.83 10.1333 1031.9 10.7933 1032.05 11.38C1032.19 11.9667 1032.34 12.4067 1032.49 12.7L1070.11 94.98L1103.77 15.12C1103.91 14.8267 1104.13 14.24 1104.43 13.36C1104.72 12.3333 1104.87 11.38 1104.87 10.5C1104.87 8.44666 1104.13 7.05332 1102.67 6.31999C1101.2 5.43999 1100.1 4.99999 1099.37 4.99999V2.79999H1122.91V4.99999C1120.27 4.99999 1118.21 5.73332 1116.75 7.19999C1115.43 8.51999 1114.4 9.91332 1113.67 11.38L1060.87 137.66C1059.11 141.913 1056.76 145.067 1053.83 147.12C1050.89 149.027 1047.74 149.98 1044.37 149.98C1042.17 149.98 1040.19 149.613 1038.43 148.88C1036.67 148.293 1035.13 147.56 1033.81 146.68C1032.49 145.8 1031.46 144.993 1030.73 144.26C1030.14 143.527 1029.85 143.16 1029.85 143.16L1035.35 131.06C1036.52 133.847 1038.06 136.047 1039.97 137.66C1041.87 139.127 1043.85 139.86 1045.91 139.86C1047.23 139.86 1048.55 139.42 1049.87 138.54C1051.33 137.513 1052.58 135.973 1053.61 133.92L1062.19 113.02L1016.43 12.04C1014.37 7.64 1011.15 5.29333 1006.75 4.99999V2.79999ZM1203.72 8.52C1192.86 8.52 1183.4 10.5 1175.34 14.46C1167.42 18.2733 1160.82 23.3333 1155.54 29.64C1150.26 35.8 1146.3 42.7667 1143.66 50.54C1141.16 58.3133 1139.92 66.0133 1139.92 73.64C1139.92 82.2933 1141.6 90.8 1144.98 99.16C1148.35 107.373 1152.97 114.707 1158.84 121.16C1164.85 127.467 1171.82 132.6 1179.74 136.56C1187.66 140.373 1196.24 142.28 1205.48 142.28C1208.12 142.28 1211.2 141.987 1214.72 141.4C1218.38 140.813 1221.98 139.713 1225.5 138.1C1229.02 136.34 1232.24 133.92 1235.18 130.84C1238.26 127.76 1240.6 123.727 1242.22 118.74H1244.42V143.16C1242.22 143.16 1239.87 143.453 1237.38 144.04C1235.03 144.627 1232.39 145.287 1229.46 146.02C1225.64 147.047 1221.39 148 1216.7 148.88C1212.15 149.76 1207.31 150.2 1202.18 150.2C1189.42 150.2 1178.2 148 1168.52 143.6C1158.84 139.2 1150.77 133.48 1144.32 126.44C1137.86 119.4 1133.02 111.48 1129.8 102.68C1126.57 93.7333 1124.96 84.7133 1124.96 75.62C1124.96 66.5267 1126.57 57.5067 1129.8 48.56C1133.02 39.6133 1137.94 31.62 1144.54 24.58C1151.14 17.3933 1159.42 11.6 1169.4 7.19999C1179.37 2.79999 1191.1 0.599996 1204.6 0.599996C1209.44 0.599996 1213.76 1.04 1217.58 1.91999C1221.54 2.79999 1225.06 3.67999 1228.14 4.56C1230.34 5.29333 1232.32 5.87999 1234.08 6.31999C1235.98 6.61333 1237.82 6.76 1239.58 6.76V31.18H1237.38C1236.5 26.6333 1234.88 22.8933 1232.54 19.96C1230.19 16.88 1227.4 14.5333 1224.18 12.92C1221.1 11.3067 1217.72 10.2067 1214.06 9.62C1210.54 8.88667 1207.09 8.52 1203.72 8.52ZM1291.16 132.6C1289.84 136.413 1287.79 139.933 1285 143.16C1282.22 146.387 1278.11 148 1272.68 148H1265.86V145.8C1266.74 145.8 1267.92 145.58 1269.38 145.14C1270.85 144.553 1272.39 143.673 1274 142.5C1275.62 141.327 1277.23 139.86 1278.84 138.1C1280.46 136.193 1281.85 133.847 1283.02 131.06L1324.6 17.1C1325.34 14.9 1325.7 13.2133 1325.7 12.04C1325.7 9.84 1325.04 8.15333 1323.72 6.97999C1322.55 5.65999 1321.3 4.99999 1319.98 4.99999V2.79999H1338.02L1387.3 137.44C1388.04 139.493 1389.43 141.4 1391.48 143.16C1393.54 144.773 1395.81 145.653 1398.3 145.8V148H1366.84V145.8C1368.02 145.8 1369.19 145.36 1370.36 144.48C1371.68 143.453 1372.34 142.133 1372.34 140.52C1372.34 140.08 1372.2 139.42 1371.9 138.54L1330.54 24.58L1291.16 132.6ZM1419.53 2.79999H1450.11V4.99999H1448.79C1447.18 4.99999 1446.08 5.51333 1445.49 6.54C1444.9 7.42 1444.61 8.37333 1444.61 9.39999C1444.61 10.1333 1444.68 10.7933 1444.83 11.38C1444.98 11.9667 1445.12 12.4067 1445.27 12.7L1482.89 94.98L1516.55 15.12C1516.7 14.8267 1516.92 14.24 1517.21 13.36C1517.5 12.3333 1517.65 11.38 1517.65 10.5C1517.65 8.44666 1516.92 7.05332 1515.45 6.31999C1513.98 5.43999 1512.88 4.99999 1512.15 4.99999V2.79999H1535.69V4.99999C1533.05 4.99999 1531 5.73332 1529.53 7.19999C1528.21 8.51999 1527.18 9.91332 1526.45 11.38L1473.65 137.66C1471.89 141.913 1469.54 145.067 1466.61 147.12C1463.68 149.027 1460.52 149.98 1457.15 149.98C1454.95 149.98 1452.97 149.613 1451.21 148.88C1449.45 148.293 1447.91 147.56 1446.59 146.68C1445.27 145.8 1444.24 144.993 1443.51 144.26C1442.92 143.527 1442.63 143.16 1442.63 143.16L1448.13 131.06C1449.3 133.847 1450.84 136.047 1452.75 137.66C1454.66 139.127 1456.64 139.86 1458.69 139.86C1460.01 139.86 1461.33 139.42 1462.65 138.54C1464.12 137.513 1465.36 135.973 1466.39 133.92L1474.97 113.02L1429.21 12.04C1427.16 7.64 1423.93 5.29333 1419.53 4.99999V2.79999ZM1591.34 145.8H1592.44V148H1560.76V145.8H1561.86C1563.03 145.8 1564.06 145.433 1564.94 144.7C1565.82 143.82 1566.55 142.793 1567.14 141.62C1567.87 140.447 1568.38 139.2 1568.68 137.88C1568.97 136.56 1569.12 135.313 1569.12 134.14V16.44C1569.12 15.4133 1568.97 14.24 1568.68 12.92C1568.38 11.6 1567.87 10.3533 1567.14 9.17999C1566.55 8.00666 1565.82 7.05332 1564.94 6.31999C1564.06 5.43999 1563.03 4.99999 1561.86 4.99999H1560.76V2.79999H1645.46V26.12H1643.26C1643.26 20.84 1642.08 16.9533 1639.74 14.46C1637.54 11.82 1634.02 10.5 1629.18 10.5H1584.08V134.14C1584.08 135.313 1584.22 136.56 1584.52 137.88C1584.81 139.2 1585.25 140.447 1585.84 141.62C1586.57 142.793 1587.38 143.82 1588.26 144.7C1589.14 145.433 1590.16 145.8 1591.34 145.8Z" fill="white"/>
</svg>
