<svg width="56" height="55" viewBox="0 0 56 55" fill="none" xmlns="http://www.w3.org/2000/svg">
<circle cx="28.2522" cy="27.4646" r="27.4646" fill="#3B181E"/>
<rect x="15.4121" y="14.6247" width="27.2493" height="27.2493" rx="3.5" stroke="white"/>
<path d="M35.6451 30.5638C37.0085 31.8852 37.2925 32.5313 37.3385 32.6108C37.9013 33.5905 36.7144 33.6673 36.7144 33.6673L34.4402 33.7018C34.4402 33.7018 33.9491 33.8024 33.307 33.339C32.4552 32.7299 31.2912 31.1411 30.6671 31.3476C30.0327 31.5568 30.2347 33.2225 30.2347 33.2225C30.2347 33.2225 30.2399 33.4264 30.0966 33.5905C29.938 33.7627 29.631 33.6965 29.631 33.6965H28.9762C28.9762 33.6965 26.5486 33.707 24.5686 31.5515C22.4121 29.2027 20.6087 24.8096 20.6087 24.8096C20.6087 24.8096 20.4987 24.5316 20.6164 24.3833C20.752 24.2165 21.1178 24.2191 21.1178 24.2191H23.5505C23.5505 24.2191 23.7782 24.2509 23.9419 24.378C24.08 24.4813 24.1542 24.6772 24.1542 24.6772C24.1542 24.6772 24.4484 25.4955 24.9702 26.4382C25.9858 28.2759 26.459 28.6784 26.8044 28.4798C27.3057 28.1912 27.1548 25.8821 27.1548 25.8821C27.1548 25.8821 27.1651 25.0427 26.9016 24.6693C26.6969 24.378 26.3158 24.2933 26.1469 24.2694C26.0088 24.2536 26.2339 23.9199 26.5255 23.7716C26.963 23.5492 27.7381 23.5333 28.6513 23.5439C29.3624 23.5518 29.631 23.5412 29.631 23.5412C30.4701 23.7531 30.1861 24.574 30.1861 26.5335C30.1861 27.1637 30.0761 28.0482 30.511 28.3395C30.6978 28.4692 31.368 28.4878 32.5063 26.462C33.0486 25.5008 33.4758 24.5978 33.4758 24.5978C33.4758 24.5978 33.5679 24.3939 33.7035 24.3092C33.8467 24.2191 34.036 24.2191 34.036 24.2191L36.5967 24.2324C36.5967 24.2324 37.3667 24.1317 37.4894 24.4972C37.6199 24.8785 37.1748 25.5458 36.1311 27.0049C34.4121 29.4013 34.2202 29.1789 35.6451 30.5638Z" fill="white"/>
</svg>
