<svg width="56" height="55" viewBox="0 0 56 55" fill="none" xmlns="http://www.w3.org/2000/svg">
<circle cx="28.323" cy="27.4646" r="27.4646" fill="#3B181E"/>
<path fill-rule="evenodd" clip-rule="evenodd" d="M27.1104 21.2939C26.9758 20.6476 26.7155 20.5856 26.4792 20.5313C26.2867 20.4853 26.0652 20.443 25.8436 20.4007C25.6248 20.3589 25.2468 20.3784 24.8745 20.6802C24.5 20.9786 23.4754 21.6817 23.1385 23.4455C22.8021 25.2063 23.669 27.1389 23.7875 27.4092C23.9092 27.677 25.3294 31.8187 28.4303 33.8999C31.009 35.6276 31.6257 35.5008 32.2442 35.5578C32.866 35.6124 34.3765 35.0664 34.8128 34.2815C35.2485 33.4996 35.3854 32.7829 35.3321 32.6168C35.2788 32.4507 35.0741 32.3199 34.7748 32.0762C34.4782 31.833 33.0104 30.6569 32.7271 30.4774C32.4461 30.3015 32.2358 30.2001 31.946 30.5147C31.6563 30.8293 30.8646 31.5157 30.6248 31.7175C30.3849 31.9193 30.1878 31.9122 29.8879 31.6715C29.5913 31.4283 28.594 30.8465 27.5581 29.383C26.7521 28.2446 26.3084 26.9461 26.1829 26.5492C26.0569 26.1552 26.2664 25.9935 26.4677 25.8454C26.6485 25.7149 26.8814 25.4903 27.0882 25.3128C27.2923 25.1347 27.3752 24.9977 27.533 24.7802C27.6881 24.5622 27.6734 24.3424 27.6257 24.1468C27.578 23.9512 27.2705 22.0582 27.1104 21.2939Z" fill="white"/>
<path d="M18.2491 37.2832L18.7235 37.4413L18.8115 37.1771L18.6333 36.9632L18.2491 37.2832ZM16.5524 42.3733L16.0781 42.2152L15.7988 43.053L16.6609 42.8614L16.5524 42.3733ZM22.9316 40.9558L23.1505 40.5062L22.9935 40.4298L22.8231 40.4677L22.9316 40.9558ZM42.7322 28.2493C42.7322 35.774 36.6322 41.874 29.1076 41.874V42.874C37.1845 42.874 43.7322 36.3263 43.7322 28.2493H42.7322ZM29.1076 14.6247C36.6322 14.6247 42.7322 20.7246 42.7322 28.2493H43.7322C43.7322 20.1723 37.1845 13.6247 29.1076 13.6247V14.6247ZM15.4829 28.2493C15.4829 20.7246 21.5829 14.6247 29.1076 14.6247V13.6247C21.0306 13.6247 14.4829 20.1723 14.4829 28.2493H15.4829ZM18.6333 36.9632C16.6659 34.601 15.4829 31.564 15.4829 28.2493H14.4829C14.4829 31.8064 15.7535 35.068 17.8649 37.6032L18.6333 36.9632ZM17.0268 42.5315L18.7235 37.4413L17.7748 37.1251L16.0781 42.2152L17.0268 42.5315ZM22.8231 40.4677L16.444 41.8852L16.6609 42.8614L23.04 41.4438L22.8231 40.4677ZM29.1076 41.874C26.9704 41.874 24.9494 41.3822 23.1505 40.5062L22.7127 41.4053C24.645 42.3463 26.8154 42.874 29.1076 42.874V41.874Z" fill="white"/>
</svg>
